<?xml version="1.0" standalone="no"?><!DOCTYPE svg PUBLIC "-//W3C//DTD SVG 1.1//EN" "http://www.w3.org/Graphics/SVG/1.1/DTD/svg11.dtd"><svg class="icon" width="200px" height="162.80px" viewBox="0 0 1258 1024" version="1.1" xmlns="http://www.w3.org/2000/svg"><path d="M1134.7968 44.909714a98.186971 98.186971 0 0 1 97.8944 98.274743 98.186971 98.186971 0 0 1-97.8944 98.274743h-1.462857v100.644571c-0.585143 35.401143-5.851429 71.68-15.711086 107.754058-19.777829 72.440686-55.881143 136.074971-101.697828 179.229257-38.209829 35.986286-79.842743 54.798629-120.129829 54.798628-4.739657 0-9.479314-0.263314-14.160457-0.789943-7.899429 38.794971-22.293943 73.903543-41.545143 100.820115-12.170971 17.056914-25.921829 30.251886-40.579657 39.350857l-9.947429 74.898286h18.344229a76.946286 76.946286 0 0 1 76.653714 76.624457c0 10.795886-4.154514 20.8896-11.6736 28.496457-7.489829 7.519086-17.466514 11.702857-28.086857 11.702857H722.651429a49.239771 49.239771 0 0 1-48.566858-42.042514l-96.4608-8.543086a49.3568 49.3568 0 0 1-44.617142-53.423543l14.774857-169.691428a186.046171 186.046171 0 0 1-21.738057-51.287772 381.717943 381.717943 0 0 1-133.178515-11.234743c-0.2048 0-0.438857-0.087771-0.672914-0.175543a116.150857 116.150857 0 0 0-14.453029 73.201372l14.218972 106.730057h26.331428a76.946286 76.946286 0 0 1 76.653715 76.624457 39.965257 39.965257 0 0 1-39.7312 40.199314h-94.6176a39.994514 39.994514 0 0 1-39.760457 39.614172H198.714514c-27.092114 0-49.152-22.1184-49.152-49.327543V935.936l-19.017143-142.453029a166.999771 166.999771 0 0 1 4.944458-68.169142 222.061714 222.061714 0 0 0 7.753142-59.538286c0-35.693714-7.899429-69.866057-21.065142-91.3408a156.672 156.672 0 0 1-23.025372-86.250057 44.763429 44.763429 0 0 0-20.333714 37.419885v77.531429l22.469486 64.833829a24.839314 24.839314 0 0 1-23.464229 33.119085H30.134857a24.7808 24.7808 0 0 1-20.245943-10.474057 25.014857 25.014857 0 0 1-3.218285-22.645028l22.469485-64.804572v-77.560686a94.705371 94.705371 0 0 1 80.866743-93.505828c18.929371-63.488 48.625371-118.549943 84.904229-156.759772a485.083429 485.083429 0 0 0 73.728-100.352l26.624-48.449828c32.533943-59.245714 73.640229-68.110629 95.232-68.110629 10.825143 0 26.506971 2.223543 43.534628 11.819886 17.056914 9.654857 35.459657 26.653257 51.755886 56.290743l13.9264 25.365943c6.407314 11.644343 17.378743 12.931657 21.796571 12.931657a24.400457 24.400457 0 0 0 21.825829-12.960914l13.9264-25.336686c32.533943-59.245714 73.669486-68.110629 95.290514-68.110629 21.591771 0 62.698057 8.864914 95.232 68.110629l96.021943 174.840686a83.587657 83.587657 0 0 0 30.047086-64.219429V132.827429a98.186971 98.186971 0 0 1-10.912914-15.857372 99.649829 99.649829 0 0 1 1.930971-98.976914 24.839314 24.839314 0 0 1 21.796571-12.053943 98.947657 98.947657 0 0 1 76.478172 38.999771h170.305828l0.789943 0.058515 0.555886-0.058515z m8.777143 75.834515h33.909028a48.186514 48.186514 0 0 0-42.686171-25.951086l-185.490286 0.058514a24.868571 24.868571 0 0 1-23.288685-16.208457 49.005714 49.005714 0 0 0-24.517486-19.894857 49.152 49.152 0 0 0 46.8992 59.509028 24.868571 24.868571 0 0 1 24.341943 25.453715 24.868571 24.868571 0 0 1-24.810057 24.400457h-0.526629a97.543314 97.543314 0 0 1-23.844571-3.510857v72.557714a133.3248 133.3248 0 0 1-80.047543 122.324114 24.693029 24.693029 0 0 1-32.914286-13.5168c-1.813943-4.447086-106.320457-195.349943-106.320457-195.349943-14.7456-26.916571-33.616457-42.305829-51.726629-42.305828-18.139429 0-36.981029 15.389257-51.755885 42.305828l-13.9264 25.365943a73.698743 73.698743 0 0 1-65.3312 38.7072 73.669486 73.669486 0 0 1-65.360458-38.7072l-13.897142-25.3952c-14.774857-26.887314-33.645714-42.276571-51.785143-42.276571-18.080914 0-36.951771 15.389257-51.697372 42.305828l-26.624 48.479086a535.464229 535.464229 0 0 1-81.276343 110.650514c-34.289371 36.132571-63.107657 93.622857-79.082057 157.696l-0.117028 0.497372-0.117029 0.438857a106.115657 106.115657 0 0 0 12.873143 79.872c18.080914 29.461943 28.4672 72.2944 28.4672 117.525943a272.384 272.384 0 0 1-9.654857 73.172114 116.970057 116.970057 0 0 0-3.452343 47.893943l19.221943 144.120686c0.146286 1.082514 0.234057 34.143086 0.234057 34.143085h109.714286a26.975086 26.975086 0 0 0-25.014857-17.086171H235.871086a24.7808 24.7808 0 0 1-24.868572-25.044114l0.731429-135.226515a168.404114 168.404114 0 0 1 21.474743-81.334857c2.2528-4.037486 18.432-28.4672 23.230171-35.869257 14.336-22.352457 26.038857-42.569143 35.752229-61.878857a24.7808 24.7808 0 0 1 34.435657-10.4448 329.991314 329.991314 0 0 0 78.965028 32.3584c27.794286 7.431314 56.641829 11.176229 85.723429 11.176229 49.473829 0 96.8704-10.561829 141.165714-31.363658 1.550629-15.594057 4.125257-31.012571 7.723886-45.904457a24.868571 24.868571 0 1 1 48.303543 11.761372 292.132571 292.132571 0 0 0-7.3728 47.747657c-6.729143 93.242514 29.930057 161.206857 67.086628 163.927771 23.025371 1.667657 42.130286-20.011886 51.492572-33.060571 18.870857-26.389943 32.007314-63.634286 36.981028-104.8576 1.667657-13.663086 14.043429-23.405714 27.648-21.767314 3.920457 0.468114 10.883657 3.042743 10.883658 3.042742 71.241143 19.573029 160.329143-69.514971 194.472228-194.56 8.718629-32.036571 13.429029-64.073143 13.9264-95.232V216.502857a24.810057 24.810057 0 0 1 24.868572-24.927086h26.302171c18.519771 0 34.6112-10.561829 42.686171-25.980342h-33.938285a22.410971 22.410971 0 0 1-22.352457-22.440229c0-12.375771 10.0352-22.440229 22.381714-22.440229z m-420.366629 844.361142h109.714286a27.004343 27.004343 0 0 0-25.014857-17.086171h-46.6944a24.9856 24.9856 0 0 1-24.605257-28.233143l10.8544-82.037028c-0.936229-0.029257-17.437257-2.194286-24.3712-4.593372l0.117028 131.949714z m-49.737143-42.276571v-16.647314c-1.6384-0.438857-51.551086-5.061486-51.551085-5.061486a25.014857 25.014857 0 0 1-22.030629-30.281143l17.993143-80.749714s-9.537829-0.380343-23.903086-6.729143l-11.410285 131.423086 90.901942 8.045714z m-0.058514-67.1744l-0.058514-60.591543c-1.462857-1.960229-2.925714-3.949714-4.330057-5.997714l-14.453029 64.892343 18.256457 1.609143 0.585143 0.087771z m-29.110857-118.052571a288.826514 288.826514 0 0 1-13.077943-72.440686c-18.080914 7.080229-36.746971 12.785371-55.734857 17.027657 4.447086 14.862629 10.4448 27.618743 17.788343 37.566171 8.8064 11.995429 18.812343 18.900114 29.725257 20.714058 11.000686 1.813943 20.421486-2.516114 21.2992-2.8672z m-200.9088 187.889371a27.062857 27.062857 0 0 0-25.073371-17.115429h-48.128a24.868571 24.868571 0 0 1-24.634515-21.650285l-17.056914-128.321829a166.560914 166.560914 0 0 1 16.032914-96.0512 359.658057 359.658057 0 0 1-19.807085-8.864914 1708.6464 1708.6464 0 0 1-37.829486 61.264457s52.194743 209.539657 53.189486 210.7392h103.277714z m-161.353143-27.326171l-20.772571-82.037029-0.438857 82.037029h21.211428z m740.352-783.213715a22.586514 22.586514 0 1 1 0 45.2608 22.586514 22.586514 0 0 1 0-45.2608z" fill="#13227a" /></svg>